<svg width="1200" height="1200" viewBox="0 0 120 120" fill="none" xmlns="http://www.w3.org/2000/svg">
  <defs>
    <linearGradient id="grad" x1="8" y1="10" x2="112" y2="110" gradientUnits="userSpaceOnUse">
      <stop stop-color="#5DD8FF"/>
      <stop offset="0.5" stop-color="#A78BFA"/>
      <stop offset="1" stop-color="#F8D477"/>
    </linearGradient>
    <filter id="shadow" x="-80%" y="-80%" width="260%" height="260%" color-interpolation-filters="sRGB">
      <feGaussianBlur in="SourceGraphic" stdDeviation="5" result="blur"/>
      <feMerge>
        <feMergeNode in="blur"/>
        <feMergeNode in="SourceGraphic"/>
      </feMerge>
    </filter>
  </defs>
  <rect width="120" height="120" rx="28" fill="#050811"/>
  <path d="M99 49c0 17.9-20.6 32-46 32-8.5 0-16.54-1.49-23.3-4.12C22 74.6 20 71.03 20 67.02c0-4.3 2.64-8.14 6.6-9.71C28.5 54.06 33 52 38 52c3.3 0 6.26 1.16 8.56 3.03C48.4 45.97 58 39 72 39c7.99 0 14.73 2.3 17 10Z" fill="url(#grad)" filter="url(#shadow)" opacity="0.95"/>
  <path d="M41 77c0 4.6 6 8 12.5 8s12.5-3.4 12.5-8" stroke="url(#grad)" stroke-width="3" stroke-linecap="round" opacity="0.82"/>
  <path d="M83 33c3.3 2 5 4.5 5 8 0 6.7-7.13 11.93-16.89 13.6" stroke="#C8D7FF" stroke-width="3" stroke-linecap="round" opacity="0.85"/>
  <circle cx="83" cy="27" r="5" fill="#F8D477" opacity="0.9"/>
  <circle cx="37" cy="31" r="3" fill="#5DD8FF" opacity="0.75"/>
  <circle cx="52" cy="22" r="2.6" fill="#A78BFA" opacity="0.7"/>
</svg>

